<?xml version="1.0" encoding="UTF-8"?>
<svg id="Calque_2" data-name="Calque 2" xmlns="http://www.w3.org/2000/svg" viewBox="0 0 192.1 192.1">
  <g id="Calque_1-2" data-name="Calque 1">
    <g>
      <circle fill="none" stroke="currentColor" stroke-linecap="round" stroke-linejoin="round" stroke-width="8.08" cx="96.05" cy="96.05" r="25.09"/>
      <path fill="none" stroke="currentColor" stroke-linecap="round" stroke-linejoin="round" stroke-width="8.08" d="M157.95,121.14c-2.28,5.16-1.18,11.19,2.76,15.22l.5.5c6.54,6.53,6.54,17.12.01,23.66h-.01c-6.53,6.55-17.12,6.56-23.66.03h-.01s-.5-.52-.5-.52c-4.03-3.95-10.06-5.04-15.22-2.76-5.06,2.17-8.34,7.13-8.36,12.63v1.42c0,9.24-7.49,16.73-16.73,16.73s-16.73-7.49-16.73-16.73v-.75c-.13-5.67-3.71-10.67-9.03-12.63-5.16-2.28-11.19-1.18-15.22,2.76l-.5.5c-6.53,6.54-17.12,6.54-23.66.01,0,0,0,0-.01-.01-6.54-6.53-6.54-17.12-.01-23.66,0,0,0,0,.01-.01l.5-.5c3.95-4.03,5.04-10.06,2.76-15.22-2.17-5.06-7.13-8.34-12.63-8.36h-1.42c-9.24,0-16.73-7.49-16.73-16.73s7.49-16.73,16.73-16.73h.75c5.67-.13,10.67-3.71,12.63-9.03,2.28-5.16,1.18-11.19-2.76-15.22l-.5-.5c-6.54-6.53-6.54-17.12-.01-23.66,0,0,0,0,.01-.01,6.53-6.54,17.12-6.54,23.66-.01,0,0,0,0,.01.01l.5.5c4.03,3.95,10.06,5.04,15.22,2.76h.67c5.06-2.17,8.34-7.13,8.36-12.63v-1.42c0-9.24,7.49-16.73,16.73-16.73s16.73,7.49,16.73,16.73v.75c.02,5.5,3.31,10.46,8.36,12.63,5.16,2.28,11.19,1.18,15.22-2.76l.5-.5c6.53-6.54,17.12-6.54,23.66-.01,0,0,0,0,.01.01,6.54,6.53,6.54,17.12.01,23.66,0,0,0,0-.01.01l-.5.5c-3.95,4.03-5.04,10.06-2.76,15.22v.67c2.17,5.06,7.13,8.34,12.63,8.36h1.42c9.24,0,16.73,7.49,16.73,16.73s-7.49,16.73-16.73,16.73h-.75c-5.5.02-10.46,3.31-12.63,8.36Z"/>
    </g>
  </g>
</svg>