<?xml version="1.0" encoding="UTF-8"?>
<svg id="Calque_2" data-name="Calque 2" xmlns="http://www.w3.org/2000/svg" viewBox="0 0 343.62 343.62">
  <g id="Calque_1-2" data-name="Calque 1">
    <path fill="currentColor" d="M171.81,0C77.31,0,0,77.31,0,171.81s77.31,171.81,171.81,171.81,171.81-77.31,171.81-171.81S267.16,0,171.81,0ZM250.85,248.26c-3.44,5.14-9.45,6.87-14.62,3.44-40.37-24.91-91.06-30.08-151.21-16.34-5.98,1.75-11.15-2.56-12.87-7.72-1.72-6.03,2.58-11.17,7.73-12.89,65.29-14.62,121.98-8.59,166.65,18.9,6.01,2.58,6.86,9.44,4.31,14.6ZM271.47,201.02c-4.31,6.01-12.04,8.59-18.07,4.3-46.37-28.35-116.82-36.94-170.93-19.76-6.86,1.72-14.6-1.72-16.32-8.59-1.72-6.87,1.72-14.62,8.59-16.34,62.71-18.88,140.02-9.42,193.28,23.21,5.17,2.59,7.73,11.17,3.45,17.18ZM273.19,152.91c-54.99-32.64-146.91-36.08-199.31-19.74-8.59,2.56-17.18-2.59-19.76-10.32-2.58-8.6,2.58-17.18,10.31-19.77,60.99-18.04,161.5-14.6,225.08,23.21,7.72,4.3,10.29,14.6,6,22.34-4.28,6.03-14.6,8.58-22.32,4.3Z"/>
  </g>
</svg>